<svg width="162" height="193" viewBox="0 0 162 193" fill="none" xmlns="http://www.w3.org/2000/svg">
<circle cx="13.4247" cy="25.552" r="13.4247" fill="#8A97FF"/>
<circle cx="51.2257" cy="25.552" r="13.4247" fill="#4E5FFC"/>
<circle cx="89.0268" cy="99.741" r="13.4247" fill="#0D267C"/>
<circle cx="13.4247" cy="62.6465" r="13.4247" fill="#6772C8"/>
<circle cx="51.2257" cy="62.6465" r="13.4247" fill="#3A47BE"/>
<circle cx="13.4247" cy="99.741" r="13.4247" fill="#424B94"/>
<circle cx="51.2257" cy="99.741" r="13.4247" fill="#252E80"/>
<rect x="75.6021" y="12.1273" width="26.8494" height="63.9439" fill="url(#paint0_linear)"/>
<rect x="133.893" y="12.1273" width="26.8494" height="101.038" fill="url(#paint1_linear)"/>
<path d="M75.6022 11.9689L102.981 11.9689L160.566 113.081L134.423 113.081L75.6022 11.9689Z" fill="url(#paint2_linear)"/>
<path d="M3.36 164H25.92V157.904H9.888V149.024H23.04V142.928H9.888V135.536H25.92V129.44H3.36V164ZM42.7125 164H49.4325L51.6165 156.8H64.6245L66.8565 164H73.5765L63.0165 129.44H53.2725L42.7125 164ZM53.4645 150.704L58.0725 135.56L62.7525 150.704H53.4645ZM103.437 164.72C105.197 164.72 106.901 164.496 108.549 164.048C110.213 163.6 111.701 162.928 113.013 162.032C114.325 161.12 115.365 159.976 116.133 158.6C116.917 157.208 117.309 155.584 117.309 153.728C117.309 151.984 116.981 150.544 116.325 149.408C115.685 148.272 114.861 147.36 113.853 146.672C112.861 145.968 111.821 145.424 110.733 145.04C109.645 144.64 108.653 144.32 107.757 144.08L101.757 142.448C101.021 142.256 100.301 142.016 99.5966 141.728C98.8926 141.44 98.3086 141.064 97.8446 140.6C97.3806 140.12 97.1486 139.504 97.1486 138.752C97.1486 137.936 97.4286 137.232 97.9886 136.64C98.5646 136.048 99.3006 135.6 100.197 135.296C101.109 134.976 102.077 134.832 103.101 134.864C104.669 134.912 106.109 135.376 107.421 136.256C108.733 137.136 109.581 138.416 109.965 140.096L117.021 138.896C116.189 135.648 114.573 133.16 112.173 131.432C109.773 129.704 106.781 128.816 103.197 128.768C100.829 128.752 98.6686 129.12 96.7166 129.872C94.7646 130.624 93.2046 131.768 92.0366 133.304C90.8686 134.84 90.2846 136.768 90.2846 139.088C90.2846 140.736 90.5566 142.104 91.1006 143.192C91.6606 144.264 92.3566 145.128 93.1886 145.784C94.0206 146.44 94.8766 146.944 95.7566 147.296C96.6526 147.648 97.4366 147.92 98.1086 148.112L107.085 150.752C108.429 151.152 109.325 151.656 109.773 152.264C110.221 152.856 110.445 153.504 110.445 154.208C110.445 155.168 110.117 155.976 109.461 156.632C108.821 157.288 107.997 157.784 106.989 158.12C105.981 158.456 104.941 158.624 103.869 158.624C101.949 158.624 100.237 158.088 98.7326 157.016C97.2286 155.944 96.2366 154.416 95.7566 152.432L88.9406 153.44C89.2926 155.776 90.1246 157.792 91.4366 159.488C92.7646 161.168 94.4526 162.464 96.5006 163.376C98.5646 164.272 100.877 164.72 103.437 164.72ZM143.019 164H149.643V149.936L161.451 129.44H153.819L146.331 142.448L138.843 129.44H131.211L143.019 149.936V164Z" fill="#19307B"/>
<path d="M5.68 192H8.608V179.82L16.624 192H19.552V174.72H16.624V186.9L8.608 174.72H5.68V192ZM50.5066 192H53.4826L54.6586 188.256H61.4746L62.6626 192H65.6386L60.1906 174.72H55.9546L50.5066 192ZM55.5106 185.556L58.0426 177.516L60.6106 185.556H55.5106ZM96.1581 192H99.1341L100.31 188.256H107.126L108.314 192H111.29L105.842 174.72H101.606L96.1581 192ZM101.162 185.556L103.694 177.516L106.262 185.556H101.162ZM149.099 192.36C151.083 192.36 152.739 191.864 154.067 190.872C155.403 189.872 156.339 188.528 156.875 186.84L153.959 186.036C153.623 187.156 153.051 188.036 152.243 188.676C151.435 189.316 150.387 189.636 149.099 189.636C147.363 189.636 146.055 189.064 145.175 187.92C144.303 186.768 143.867 185.248 143.867 183.36C143.875 181.472 144.315 179.956 145.187 178.812C146.059 177.66 147.363 177.084 149.099 177.084C150.387 177.084 151.435 177.404 152.243 178.044C153.051 178.684 153.623 179.564 153.959 180.684L156.875 179.88C156.339 178.184 155.403 176.84 154.067 175.848C152.739 174.856 151.083 174.36 149.099 174.36C147.379 174.36 145.899 174.74 144.659 175.5C143.427 176.252 142.479 177.304 141.815 178.656C141.159 180 140.831 181.568 140.831 183.36C140.831 185.144 141.159 186.712 141.815 188.064C142.479 189.416 143.427 190.472 144.659 191.232C145.899 191.984 147.379 192.36 149.099 192.36Z" fill="#19307B"/>
<defs>
<linearGradient id="paint0_linear" x1="89.0268" y1="12.1273" x2="89.0268" y2="76.0712" gradientUnits="userSpaceOnUse">
<stop stop-color="#6074B9"/>
<stop offset="1" stop-color="#0D267C"/>
</linearGradient>
<linearGradient id="paint1_linear" x1="147.318" y1="12.1273" x2="147.318" y2="113.166" gradientUnits="userSpaceOnUse">
<stop stop-color="#607FE7"/>
<stop offset="1" stop-color="#0D267C"/>
</linearGradient>
<linearGradient id="paint2_linear" x1="85.5116" y1="6.13615" x2="151.575" y2="118.373" gradientUnits="userSpaceOnUse">
<stop offset="0.0364583" stop-color="#6483ED"/>
<stop offset="1" stop-color="#122871"/>
</linearGradient>
</defs>
</svg>
